# xmcd
#
# Track frame offsets:
#	150
#	12143
#	27265
#	39036
#	50946
#	62565
#	74299
#	84766
#	98301
#	111550
#	123521
#	136090
#	149166
#	162609
#	175920
#	189835
#	202968
#	213393
#	225509
#	240115
#	253415
#	266182
#	276858
#	290210
#	303351
#	315618
#	330551
#	344150
#
# Disc length: 4769 seconds
#
# Revision: 0
# Processed by: cddbd v1.5.2PL0 Copyright (c) Steve Scherf et al.
# Submitted via: dBpowerAMP V4.0
#
DISCID=a0129f1c
DTITLE=Lucho Barrios - Lucho Barrios
DYEAR=1900
DGENRE=
TTITLE0=Rondando tu esquina
TTITLE1=Marabu
TTITLE2=Me engañas mujer
TTITLE3=Brujerias
TTITLE4=Poquita Fe
TTITLE5=No me Amenaces
TTITLE6=Amor de pobre
TTITLE7=Amor Gitano
TTITLE8=Mi viejo
TTITLE9=Mi niña bonita
TTITLE10=Cruel condena
TTITLE11=Amor incomparable
TTITLE12=Dos medallitas
TTITLE13=Amor por ti
TTITLE14=Ya te olvide
TTITLE15=Hola pintor
TTITLE16=Tu no sabes querer
TTITLE17=Quien quiero no me quiere
TTITLE18=Sombras
TTITLE19=Mi cruz
TTITLE20=Y pienso asi
TTITLE21=Rompamos el contrato
TTITLE22=Mi decision
TTITLE23=Si te vas pos anda vete
TTITLE24=Castigo
TTITLE25=Donde esta Yolanda
TTITLE26=Copas de licor
TTITLE27=Mentirosa
EXTD=
EXTT0=
EXTT1=
EXTT2=
EXTT3=
EXTT4=
EXTT5=
EXTT6=
EXTT7=
EXTT8=
EXTT9=
EXTT10=
EXTT11=
EXTT12=
EXTT13=
EXTT14=
EXTT15=
EXTT16=
EXTT17=
EXTT18=
EXTT19=
EXTT20=
EXTT21=
EXTT22=
EXTT23=
EXTT24=
EXTT25=
EXTT26=
EXTT27=
PLAYORDER=
